:SAMPLES-PER-SECOND 25
:FULLY-SPECIFIED
:DEGREES
84
root  -1.75525 61.618 -17.5975 3.35952 -6.03232 5.8158
RightUpLeg  0.654286 -1.79511 -7.94572
RightLeg  19.8916 3.21011 0.670669
RightFoot  20.3487 -2.60265 9.7003
RightToes  2.84633e-005 7.89722e-005 -0.000426369
Spine  2.48473 3.12871 -0.0194405
Spine1  5.19745 5.99294 -3.3903
HEad  14.6716 -6.6355 -4.86998
LeftShoulder1  -3.88251e-019 0 -3.92111e-022
LeftArm  -35.7897 6.13743 -80.7919
LeftForeArm  26.0795 2.08593 1.87366
LeftHand  -0.549479 -4.2285 6.90811
RightShoulder  7.45443e-017 -2.42657e-020 1.96277e-018
RightArm  -17.1147 -11.3796 72.2956
RightForeArm  32.5555 10.4307 10.0538
RightHand  -0.942186 9.62853 -7.65268
LeftUpLeg  -41.3216 0.334187 -12.5018
LeftLeg  54.7116 3.0571 5.13481
LeftFoot  -11.8135 0.105065 8.11599
LeftToes  3.91355e-005 3.11907e-005 -4.10385e-006
85
root  -1.70188 62.4631 -16.6469 3.17268 -5.50263 5.33799
RightUpLeg  -2.80916 -1.62006 -7.18254
RightLeg  28.6451 1.07184 0.418697
RightFoot  18.8837 -1.40925 5.69056
RightToes  2.84633e-005 7.89722e-005 -0.000426369
Spine  2.51139 2.61595 -0.451481
Spine1  5.15856 5.09016 -3.19409
HEad  15.0964 -6.23618 -4.59045
LeftShoulder1  -3.88251e-019 0 -3.92111e-022
LeftArm  -35.3854 3.90011 -80.7123
LeftForeArm  28.3762 1.99775 2.69776
LeftHand  -0.570066 -4.10471 7.2431
RightShoulder  7.45443e-017 -2.42657e-020 1.96277e-018
RightArm  -17.6424 -11.0181 72.3582
RightForeArm  35.8741 10.5869 9.65255
RightHand  -1.09697 9.46426 -8.93518
LeftUpLeg  -36.7981 0.508169 -12.2226
LeftLeg  50.426 3.36624 4.80955
LeftFoot  -12.0676 0.125333 8.3233
LeftToes  3.91355e-005 3.11907e-005 -4.10385e-006
86
root  -1.68548 63.2728 -15.7846 2.45877 -4.60225 4.99858
RightUpLeg  -6.4603 -1.38143 -6.14276
RightLeg  39.8318 0.20156 -0.0999334
RightFoot  14.772 -0.505564 2.62157
RightToes  2.84633e-005 7.89722e-005 -0.000426369
Spine  2.80918 2.03639 -0.976728
Spine1  5.65941 3.99638 -2.89258
HEad  14.9688 -6.04965 -4.43375
LeftShoulder1  -3.88251e-019 0 -3.92111e-022
LeftArm  -34.4244 1.24571 -80.4619
LeftForeArm  30.5257 1.94548 2.60794
LeftHand  -0.59865 -3.98919 7.6778
RightShoulder  7.45443e-017 -2.42657e-020 1.96277e-018
RightArm  -17.9156 -10.6612 72.4127
RightForeArm  34.8902 11.002 9.34009
RightHand  -1.48497 9.7691 -11.7016
LeftUpLeg  -31.9756 0.532603 -11.8813
LeftLeg  45.994 3.29289 4.06724
LeftFoot  -11.6177 0.0882633 7.57034
LeftToes  3.91355e-005 3.11907e-005 -4.10385e-006
87
root  -1.68562 63.9573 -14.9792 1.55368 -3.5614 4.83381
RightUpLeg  -9.87029 -1.12386 -5.14976
RightLeg  50.5546 0.365 0.122881
RightFoot  11.9187 -0.0386328 0.5904
RightToes  2.84633e-005 7.89722e-005 -0.000426369
Spine  3.16122 1.52742 -1.59508
Spine1  6.26514 2.90468 -2.62004
HEad  15.3681 -5.86229 -4.49335
LeftShoulder1  -3.88251e-019 0 -3.92111e-022
LeftArm  -33.3827 -1.22814 -80.299
LeftForeArm  31.2703 1.9539 1.98557
LeftHand  -0.658631 -4.10298 8.32314
RightShoulder  7.45443e-017 -2.42657e-020 1.96277e-018
RightArm  -18.0796 -10.485 72.0717
RightForeArm  32.4505 10.9142 9.50604
RightHand  -1.68892 10.2096 -12.8888
LeftUpLeg  -27.1754 0.17093 -11.6258
LeftLeg  41.7285 2.8396 3.10814
LeftFoot  -11.0165 0.0458075 7.18229
LeftToes  3.91355e-005 3.11907e-005 -4.10385e-006
88
root  -1.681 64.5865 -14.1588 0.904558 -2.40865 4.31249
RightUpLeg  -12.9509 -1.25717 -3.89543
RightLeg  58.5815 0.470727 0.351234
RightFoot  9.01698 0.29866 -1.32966
RightToes  2.84633e-005 7.89722e-005 -0.000426369
Spine  3.23326 1.10647 -1.87458
Spine1  6.34315 1.90626 -2.02622
HEad  16.832 -5.56527 -4.6211
LeftShoulder1  -3.88251e-019 0 -3.92111e-022
LeftArm  -32.3848 -3.3257 -80.3683
LeftForeArm  31.263 2.01953 1.32697
LeftHand  -0.73547 -4.1537 9.21423
RightShoulder  7.45443e-017 -2.42657e-020 1.96277e-018
RightArm  -17.8576 -10.9547 71.397
RightForeArm  30.5253 10.7062 9.9201
RightHand  -1.59222 10.3223 -12.0917
LeftUpLeg  -22.6291 -0.414893 -11.0668
LeftLeg  37.4909 2.57999 2.50068
LeftFoot  -10.6657 0.0208346 7.34738
LeftToes  3.91355e-005 3.11907e-005 -4.10385e-006
89
root  -1.67582 65.1755 -13.3324 0.462406 -1.23053 3.53434
RightUpLeg  -15.7454 -1.64864 -2.63466
RightLeg  63.483 0.0389688 -0.502264
RightFoot  5.29358 0.39617 -2.45693
RightToes  2.84633e-005 7.89722e-005 -0.000426369
Spine  3.13217 0.749516 -1.89268
Spine1  6.10697 1.05403 -1.23102
HEad  18.1151 -5.55098 -4.61643
LeftShoulder1  -3.88251e-019 0 -3.92111e-022
LeftArm  -31.2132 -4.99066 -80.646
LeftForeArm  30.7321 2.11719 0.319244
LeftHand  -0.779107 -4.08218 9.81129
RightShoulder  7.45443e-017 -2.42657e-020 1.96277e-018
RightArm  -18.0547 -11.9155 70.7808
RightForeArm  28.9719 10.4358 10.186
RightHand  -1.50701 10.2684 -11.51
LeftUpLeg  -18.3694 -0.91108 -10.2416
LeftLeg  33.2125 2.36259 2.0332
LeftFoot  -10.2598 -0.00662137 7.2526
LeftToes  3.91355e-005 3.11907e-005 -4.10385e-006
90
root  -1.67311 65.6285 -12.5286 0.0400224 -0.168997 2.87309
RightUpLeg  -18.3754 -2.12245 -1.77195
RightLeg  65.4231 -0.353704 -1.47986
RightFoot  2.93529 0.351462 -2.6408
RightToes  2.84633e-005 7.89722e-005 -0.000426369
Spine  3.06279 0.393306 -1.85153
Spine1  5.97092 0.281603 -0.582062
HEad  18.3763 -5.68087 -4.66712
LeftShoulder1  -3.88251e-019 0 -3.92111e-022
LeftArm  -30.059 -6.19981 -81.005
LeftForeArm  29.9021 0.699032 -1.21107
LeftHand  -0.777651 -4.14501 9.73256
RightShoulder  7.45443e-017 -2.42657e-020 1.96277e-018
RightArm  -19.308 -12.787 70.3383
RightForeArm  28.4247 9.67034 10.2669
RightHand  -1.4658 10.3129 -11.1785
LeftUpLeg  -14.4689 -1.31824 -9.4542
LeftLeg  29.3561 1.73721 1.418
LeftFoot  -9.92132 -0.028195 7.08941
LeftToes  3.91355e-005 3.11907e-005 -4.10385e-006
91
root  -1.67035 65.9338 -11.731 -0.330229 1.00869 2.24361
RightUpLeg  -20.7343 -2.76931 -1.13872
RightLeg  64.1646 -0.48888 -1.69673
RightFoot  1.45446 0.33894 -2.93178
RightToes  2.84633e-005 7.89722e-005 -0.000426369
Spine  2.98168 -0.14656 -1.71016
Spine1  5.84673 -0.764925 -0.0353164
HEad  18.2134 -5.42568 -4.73378
LeftShoulder1  -3.88251e-019 0 -3.92111e-022
LeftArm  -29.1402 -6.8975 -81.3381
LeftForeArm  29.5113 -2.93619 -2.89897
LeftHand  -0.768159 -4.28257 9.48894
RightShoulder  7.45443e-017 -2.42657e-020 1.96277e-018
RightArm  -20.7857 -13.2942 70.0078
RightForeArm  29.2752 8.58435 10.2613
RightHand  -1.33775 10.2843 -10.2597
LeftUpLeg  -11.0348 -1.88272 -8.74464
LeftLeg  26.2337 1.04696 0.914593
LeftFoot  -9.88431 -0.0344352 7.38116
LeftToes  3.91355e-005 3.11907e-005 -4.10385e-006
92
root  -1.6772 66.156 -10.9393 -0.576243 2.30223 1.54819
RightUpLeg  -22.5674 -3.40459 -0.572293
RightLeg  59.4922 -0.517913 -1.43925
RightFoot  -0.79809 0.293623 -3.23296
RightToes  2.84633e-005 7.89722e-005 -0.000426369
Spine  2.82342 -0.850697 -1.4431
Spine1  5.58835 -2.06049 0.483572
HEad  18.1785 -5.1688 -4.59855
LeftShoulder1  -3.88251e-019 0 -3.92111e-022
LeftArm  -28.4219 -7.33352 -81.6742
LeftForeArm  29.7451 -5.72783 -4.17556
LeftHand  -0.783864 -4.37356 9.59139
RightShoulder  7.45443e-017 -2.42657e-020 1.96277e-018
RightArm  -22.1462 -13.4967 69.8252
RightForeArm  30.6762 7.54341 10.0827
RightHand  -1.23982 10.1104 -9.64275
LeftUpLeg  -8.03328 -2.09149 -8.02755
LeftLeg  23.5694 0.343714 0.51342
LeftFoot  -9.9592 -0.0381162 8.12243
LeftToes  3.91355e-005 3.11907e-005 -4.10385e-006
93
root  -1.69846 66.3184 -10.1608 -0.647923 3.09438 0.969868
RightUpLeg  -23.8071 -3.44027 -0.210478
RightLeg  51.65 -0.407848 -0.935461
RightFoot  -1.99186 0.236313 -3.05448
RightToes  2.84633e-005 7.89722e-005 -0.000426369
Spine  2.60709 -1.39766 -1.07337
Spine1  5.22292 -2.98233 0.852061
HEad  18.3298 -5.48334 -4.47285
LeftShoulder1  -3.88251e-019 0 -3.92111e-022
LeftArm  -28.0834 -7.93273 -82.1773
LeftForeArm  30.3922 -6.82324 -4.92288
LeftHand  -0.821733 -4.47897 9.93802
RightShoulder  7.45443e-017 -2.42657e-020 1.96277e-018
RightArm  -23.5232 -13.6048 69.8251
RightForeArm  31.7553 6.64814 9.50634
RightHand  -1.24256 9.99151 -9.73238
LeftUpLeg  -5.42314 -1.20877 -7.2485
LeftLeg  21.1104 -0.944385 -0.0634814
LeftFoot  -9.9226 -0.0514648 8.95983
LeftToes  3.91355e-005 3.11907e-005 -4.10385e-006
94
root  -1.71885 66.4364 -9.37502 -0.492957 3.13256 0.694698
RightUpLeg  -24.2232 -2.66229 -0.148097
RightLeg  40.9719 -0.358265 -0.634479
RightFoot  -1.06631 0.247382 -2.83017
RightToes  2.84633e-005 7.89722e-005 -0.000426369
Spine  2.3623 -1.65983 -0.643126
Spine1  4.78467 -3.33635 0.94288
HEad  18.6731 -5.67256 -4.48657
LeftShoulder1  -3.88251e-019 0 -3.92111e-022
LeftArm  -28.2448 -8.47198 -82.8864
LeftForeArm  31.1606 -6.28819 -5.04382
LeftHand  -0.84604 -4.5023 10.2
RightShoulder  7.45443e-017 -2.42657e-020 1.96277e-018
RightArm  -24.6265 -13.8007 70.0795
RightForeArm  32.1094 5.97077 8.58039
RightHand  -1.26378 9.92318 -9.93246
LeftUpLeg  -3.17802 -0.0899659 -6.60072
LeftLeg  18.8298 -2.24771 -0.582817
LeftFoot  -9.60171 -0.0827084 9.23913
LeftToes  3.91355e-005 3.11907e-005 -4.10385e-006
95
root  -1.73035 66.5405 -8.56633 -0.197193 2.82226 0.619886
RightUpLeg  -23.4051 -1.27168 -0.241482
RightLeg  27.8425 -1.32764 -0.988701
RightFoot  -0.423625 0.240236 -2.53829
RightToes  2.84633e-005 7.89722e-005 -0.000426369
Spine  2.14546 -1.8354 -0.164712
Spine1  4.35295 -3.59988 0.836859
HEad  19.0143 -4.9648 -4.38561
LeftShoulder1  -3.88251e-019 0 -3.92111e-022
LeftArm  -28.5947 -8.31075 -83.6868
LeftForeArm  31.6522 -4.74308 -4.55011
LeftHand  -0.832058 -4.48309 10.0545
RightShoulder  7.45443e-017 -2.42657e-020 1.96277e-018
RightArm  -25.3614 -14.0878 70.5902
RightForeArm  31.6253 5.64107 7.75604
RightHand  -1.33124 9.80706 -10.5137
LeftUpLeg  -1.12835 0.251362 -6.2602
LeftLeg  16.6718 -2.61485 -0.70614
LeftFoot  -9.12784 -0.117164 8.89943
LeftToes  3.91355e-005 3.11907e-005 -4.10385e-006
96
root  -1.74846 66.6241 -7.72523 0.0931165 2.31824 0.436241
RightUpLeg  -21.5221 0.763089 -0.197725
RightLeg  13.9675 -3.4537 -1.26191
RightFoot  0.346149 0.156949 -1.50949
RightToes  2.84633e-005 7.89722e-005 -0.000426369
Spine  2.01499 -2.00371 0.473652
Spine1  4.02553 -3.96677 0.841252
HEad  19.1536 -3.94506 -4.30172
LeftShoulder1  -3.88251e-019 0 -3.92111e-022
LeftArm  -29.0051 -7.44469 -84.5651
LeftForeArm  31.9623 -2.13474 -3.60271
LeftHand  -0.790513 -4.70534 9.37138
RightShoulder  7.45443e-017 -2.42657e-020 1.96277e-018
RightArm  -25.7861 -14.3978 71.0102
RightForeArm  30.8398 5.69151 7.4443
RightHand  -1.42456 9.74733 -11.26
LeftUpLeg  0.913077 0.457964 -5.89401
LeftLeg  14.6611 -2.45487 -0.669173
LeftFoot  -8.84982 -0.133981 8.59804
LeftToes  3.91355e-005 3.11907e-005 -4.10385e-006
